<svg height="512" viewBox="0 0 512 512" width="512" xmlns="http://www.w3.org/2000/svg"><g id="Solid"><path d="m376 432h48v48h-48z"/><path d="m440 104h-176v192h63.637l-31.637-35.153v19.153h-16v-80h16v36.93l53.163 59.07h90.837z"/><circle cx="120" cy="368" r="16"/><circle cx="392" cy="368" r="16"/><path d="m440 408v-96h-76.437l2.383 2.648-11.892 10.7-12.017-13.348h-172.074l-12.017 13.352-11.892-10.7 2.383-2.652h-76.437v96a8.009 8.009 0 0 0 8 8h352a8.009 8.009 0 0 0 8-8zm-320-8a32 32 0 1 1 32-32 32.036 32.036 0 0 1 -32 32zm224-8h-176v-16h176zm0-32h-176v-16h176zm48 40a32 32 0 1 1 32-32 32.036 32.036 0 0 1 -32 32z"/><path d="m440 72a40.045 40.045 0 0 0 -40-40h-288a40.045 40.045 0 0 0 -40 40v16h368zm-320-8h-16v-16h16zm112 0h-16v-16h16zm32 0h-16v-16h16zm32 0h-16v-16h16zm112 0h-16v-16h16z"/><path d="m456 176v80h24.01l-.01-80z"/><path d="m88 432h48v48h-48z"/><path d="m184.363 296h63.637v-192h-176v192h90.837l53.163-59.07v-36.93h16v80h-16v-19.153z"/><path d="m32 176h24v80h-24z"/></g></svg>